<?xml version="1.0" encoding="utf-8"?>
<!-- Generated by Mocodo 4.2.12 -->
<svg width="222" height="194" viewBox="0 0 222 194" xmlns="http://www.w3.org/2000/svg">
<rect x="0" y="0" width="222" height="194" fill="#f7f7f7" stroke="none" stroke-width="0"/>

<!-- Association OBTENIR -->
<g>
	<line x1="162" y1="51" x2="44" y2="51" stroke="#d6604d" stroke-width="2"/>
	<line x1="44" y1="143" x2="44" y2="51" stroke="#d6604d" stroke-width="2"/>
	<g>
		<path d="M65 26 a14 14 90 0 1 14 14 V51 h-70 V40 a14 14 90 0 1 14 -14" fill="#f4a582" stroke="#f4a582" stroke-width="0"/>
		<path d="M79 51 v11 a14 14 90 0 1 -14 14 H23 a14 14 90 0 1 -14 -14 V51 H70" fill="#fddbc7" stroke="#fddbc7" stroke-width="0"/>
		<rect x="9" y="26" width="70" height="50" fill="none" rx="14" stroke="#d6604d" stroke-width="2"/>
		<line x1="9" y1="51" x2="79" y2="51" stroke="#d6604d" stroke-width="1"/>
		<text x="16" y="43.75" fill="#000000" font-family="Verdana" font-size="12">OBTENIR</text>
	</g>
	<text x="84" y="68" fill="#2166ac" font-family="Verdana" font-size="12">0,N</text>
	<text x="49" y="93" fill="#2166ac" font-family="Verdana" font-size="12">1,1</text>
</g>

<!-- Entity UTILISATEUR -->
<g>
	<g>
		<rect x="111" y="9" width="102" height="25" fill="#92c5de" stroke="none" stroke-width="0" opacity="1"/>
		<rect x="111" y="34" width="102" height="59" fill="#d1e5f0" stroke="none" stroke-width="0" opacity="1"/>
		<rect x="111" y="9" width="102" height="84" fill="none" stroke="#4393c3" stroke-width="2" opacity="1"/>
		<line x1="111" y1="34" x2="213" y2="34" stroke="#4393c3" stroke-width="1"/>
	</g>
	<text x="121" y="26.75" fill="#000000" font-family="Verdana" font-size="12">UTILISATEUR</text>
	<text x="116" y="51.8" fill="#000000" font-family="Verdana" font-size="12">id utilisateur</text>
	<line x1="116" y1="54" x2="192" y2="54" stroke="#000000" stroke-width="1"/>
	<text x="116" y="68.8" fill="#000000" font-family="Verdana" font-size="12">nom utilisateur</text>
	<text x="116" y="85.8" fill="#000000" font-family="Verdana" font-size="12">mot de passe</text>
</g>

<!-- Entity SCORE -->
<g>
	<g>
		<rect x="11" y="101" width="66" height="25" fill="#92c5de" stroke="none" stroke-width="0" opacity="1"/>
		<rect x="11" y="126" width="66" height="59" fill="#d1e5f0" stroke="none" stroke-width="0" opacity="1"/>
		<rect x="11" y="101" width="66" height="84" fill="none" stroke="#4393c3" stroke-width="2" opacity="1"/>
		<line x1="11" y1="126" x2="77" y2="126" stroke="#4393c3" stroke-width="1"/>
	</g>
	<text x="23" y="118.75" fill="#000000" font-family="Verdana" font-size="12">SCORE</text>
	<text x="16" y="143.8" fill="#000000" font-family="Verdana" font-size="12">id score</text>
	<line x1="16" y1="146" x2="64" y2="146" stroke="#000000" stroke-width="1"/>
	<text x="16" y="160.8" fill="#000000" font-family="Verdana" font-size="12">nom quiz</text>
	<text x="16" y="177.8" fill="#000000" font-family="Verdana" font-size="12">score</text>
</g>
</svg>