<?xml version="1.0" encoding="utf-8"?>
<!-- Generated by Mocodo 4.2.12 -->
<svg width="218" height="177" viewBox="0 0 218 177" xmlns="http://www.w3.org/2000/svg">
<rect x="0" y="0" width="218" height="177" fill="#f7f7f7" stroke="none" stroke-width="0"/>

<!-- Association OBTENIR -->
<g>
	<line x1="60" y1="51" x2="60" y2="143" stroke="#d6604d" stroke-width="2"/>
	<line x1="176" y1="51" x2="60" y2="143" stroke="#d6604d" stroke-width="2"/>
	<g>
		<path d="M81 118 a14 14 90 0 1 14 14 V143 h-70 V132 a14 14 90 0 1 14 -14" fill="#f4a582" stroke="#f4a582" stroke-width="0"/>
		<path d="M95 143 v11 a14 14 90 0 1 -14 14 H39 a14 14 90 0 1 -14 -14 V143 H70" fill="#fddbc7" stroke="#fddbc7" stroke-width="0"/>
		<rect x="25" y="118" width="70" height="50" fill="none" rx="14" stroke="#d6604d" stroke-width="2"/>
		<line x1="25" y1="143" x2="95" y2="143" stroke="#d6604d" stroke-width="1"/>
		<text x="32" y="135.75" fill="#000000" font-family="Verdana" font-size="12">OBTENIR</text>
	</g>
	<text x="65" y="110" fill="#2166ac" font-family="Verdana" font-size="12">1,N</text>
	<text x="116" y="75.1" fill="#2166ac" font-family="Verdana" font-size="12">0,N</text>
</g>

<!-- Entity UTILISATEUR -->
<g>
	<g>
		<rect x="9" y="9" width="102" height="25" fill="#92c5de" stroke="none" stroke-width="0" opacity="1"/>
		<rect x="9" y="34" width="102" height="59" fill="#d1e5f0" stroke="none" stroke-width="0" opacity="1"/>
		<rect x="9" y="9" width="102" height="84" fill="none" stroke="#4393c3" stroke-width="2" opacity="1"/>
		<line x1="9" y1="34" x2="111" y2="34" stroke="#4393c3" stroke-width="1"/>
	</g>
	<text x="19" y="26.75" fill="#000000" font-family="Verdana" font-size="12">UTILISATEUR</text>
	<text x="14" y="51.8" fill="#000000" font-family="Verdana" font-size="12">id utilisateur</text>
	<line x1="14" y1="54" x2="90" y2="54" stroke="#000000" stroke-width="1"/>
	<text x="14" y="68.8" fill="#000000" font-family="Verdana" font-size="12">nom utilisateur</text>
	<text x="14" y="85.8" fill="#000000" font-family="Verdana" font-size="12">mot de passe</text>
</g>

<!-- Entity SCORE -->
<g>
	<g>
		<rect x="143" y="9" width="66" height="25" fill="#92c5de" stroke="none" stroke-width="0" opacity="1"/>
		<rect x="143" y="34" width="66" height="59" fill="#d1e5f0" stroke="none" stroke-width="0" opacity="1"/>
		<rect x="143" y="9" width="66" height="84" fill="none" stroke="#4393c3" stroke-width="2" opacity="1"/>
		<line x1="143" y1="34" x2="209" y2="34" stroke="#4393c3" stroke-width="1"/>
	</g>
	<text x="155" y="26.75" fill="#000000" font-family="Verdana" font-size="12">SCORE</text>
	<text x="148" y="51.8" fill="#000000" font-family="Verdana" font-size="12">id score</text>
	<line x1="148" y1="54" x2="196" y2="54" stroke="#000000" stroke-width="1"/>
	<text x="148" y="68.8" fill="#000000" font-family="Verdana" font-size="12">nom quiz</text>
	<text x="148" y="85.8" fill="#000000" font-family="Verdana" font-size="12">score</text>
</g>
</svg>